<svg xmlns="http://www.w3.org/2000/svg" xml:space="preserve" fill-rule="evenodd" stroke-linejoin="round" stroke-miterlimit="2" clip-rule="evenodd" viewBox="0 0 938 938">
  <path d="M426.093 29.105c-16.059 26.997-21.889 55.065-15.236 73.358 7.886 21.685 8.721 55.629 2.034 82.713-3.873 15.685-6.134 40.286-5.004 54.451 2.48 31.088.771 50.348-6.012 67.782-1.973 5.07-4.615 13.72-5.872 19.223-2.197 9.618-2.707 10.646-13.166 26.525-5.984 9.085-13.128 20.219-15.876 24.741-4.311 7.096-5.083 7.915-5.631 5.976-.35-1.236-2.24-7.66-4.2-14.277-6.244-21.076-7.986-44.335-4.266-56.97 3.495-11.868 1.68-13.279-5.802-4.514-12.827 15.027-21.146 49.669-21.616 90.014-.047 3.994-.204 4.3-1.402 2.721-1.15-1.515-1.273-.178-.836 9.047.412 8.695.224 11.114-.957 12.295-1.096 1.096-1.455 3.883-1.412 10.953.07 11.434-7.544 46.289-10.829 49.574-.76.76-1.861 3.621-2.449 6.359-1.272 5.933-6.165 18.958-16.547 44.051-4.21 10.175-9.05 22.775-10.755 28-11.226 34.392-10.796 33.497-13.576 28.262-1.391-2.619-4.486-8.304-6.878-12.634-2.391-4.329-4.348-8.041-4.348-8.247 0-.207-1.575-2.569-3.5-5.248-1.925-2.68-3.5-5.381-3.5-6.002 0-.622-.42-1.131-.933-1.131-.513 0-1.236-.956-1.607-2.125s-4.272-5.557-8.669-9.75c-4.398-4.194-8.802-9.2-9.787-11.125-3.104-6.065-9.315-9.114-18.197-8.932-3.266.067-3.276.081-.807 1.169 1.375.606 4.022 1.78 5.882 2.609 9.682 4.315 24.131 23.346 25.475 33.553.355 2.695 1.095 5.44 1.643 6.101 1.243 1.498 1.511 5.432.528 7.75-.516 1.217-.287 1.75.752 1.75 1.44 0 1.957 1.996 4.254 16.435.344 2.164.62 10.931.613 19.482-.009 10.443.355 15.775 1.11 16.242.826.511.773 2.768-.202 8.518-.729 4.303-1.645 10.973-2.034 14.823-.727 7.183-4.85 19.235-6.398 18.701-.477-.164-2.455 3.661-4.396 8.5-1.94 4.839-4.608 10.513-5.927 12.607-1.319 2.095-3.505 7.628-4.858 12.297-5.501 18.98-16.754 34.921-31.662 44.851-2.904 1.935-8.603 6.625-12.665 10.422-4.062 3.798-12.154 9.766-17.982 13.263-5.829 3.498-14.206 9.673-18.615 13.724-9.852 9.049-14.392 12.224-24.024 16.798-4.122 1.958-7.494 4.076-7.494 4.707 0 1.314-4.058 4.182-5.375 3.8-1.169-.339-4.625 2.847-4.625 4.262 0 1.554-4.26 5.164-20.5 17.372-7.7 5.788-15.523 11.765-17.385 13.284-2.774 2.26-3.714 2.555-5.202 1.626-3.415-2.133-7.131.196-8.435 5.287-4.24 16.553-17.03 27.38-24.05 20.36-4.465-4.464-5.391-3.547-5.413 5.362-.015 6.223-.015 6.223-8.105 10.89-7.056 4.07-8.032 4.967-7.639 7.026.249 1.299.125 2.361-.275 2.361-.399 0-1.916.936-3.371 2.08-3.393 2.669-2.424 4.385 1.368 2.423 1.584-.819 3.509-1.247 4.278-.952.769.295 4.404-1.058 8.078-3.007 3.674-1.949 7.776-3.544 9.116-3.544 1.339 0 2.795-.619 3.235-1.375.875-1.505 10.392-6.508 18.333-9.638 9.66-3.808 23.384 3.88 21.281 11.921-1.476 5.643 11.281-3.16 13.227-9.127 6.319-19.38 6.905-19.955 28.306-27.797 20.518-7.519 26.78-9.06 25.734-6.335-.32.833-.581 2.086-.581 2.785 0 .699-3.056 4.824-6.791 9.168-11.552 13.437-16.474 20.28-14.147 19.672 1.115-.292 5.045-3.958 8.733-8.146 3.688-4.188 8.47-9.193 10.626-11.121 2.157-1.929 6.657-5.993 10-9.032 11.539-10.489 18.657-12.725 37.169-11.677 21.677 1.228 28.884 12.212 16.863 25.702-7.202 8.083-12.442 17.478-10.296 18.46 2.394 1.095 5.342-1.834 9.014-8.96 1.134-2.2 2.656-4.678 3.381-5.507.725-.83 2.383-4.786 3.684-8.792 2.365-7.284 2.365-7.284 4.728-.492 1.3 3.735 4.165 10.616 6.368 15.291 2.932 6.223 4.126 10.182 4.455 14.78.425 5.928 1.999 7.502 4.848 4.846.074-.069-.281-3.051-.79-6.626-1.863-13.097 11.182-40.157 16.998-35.261 5.367 4.517 8.157 13.31 8.157 25.705 0 6.95.394 11.556.989 11.556.544 0 .941-1.013.882-2.25-.059-1.238.216-4.725.611-7.75.738-5.659.122-9.827-3.396-22.965-3.137-11.72-1.469-17.169 7.49-24.468 8.613-7.015 15.995 1.383 18.428 20.964.608 4.892 1.632 9.587 2.276 10.432.644.846 2.384 2.975 3.867 4.732 1.89 2.241 2.904 4.867 3.395 8.793.579 4.637 3.233 8.052 2.858 3.679-.055-.642-.168-2.9-.25-5.019-.138-3.54-.895-4.998-6.581-12.668-.824-1.111-1.792-4.711-2.153-8-.655-5.98-.655-5.98 2.443-1.405 1.704 2.517 5.345 6.47 8.09 8.785 3.728 3.143 5.267 5.278 6.077 8.425 2.247 8.734 4.222 13.867 5.024 13.055.788-.797-1.814-11.848-4.11-17.456-.59-1.439-3.481-4.696-6.426-7.239-9.004-7.773-12.208-14.601-10.057-21.427 1.745-5.535 1.745-5.535 6.62 1.873 6.764 10.281 8.046 12.117 10.072 14.43 2.497 2.852 14.851 27.486 14.851 29.614 0 2.264 4.245 6.865 6.335 6.865 1.323 0 1.183-.622-.799-3.541-1.321-1.948-3.174-5.886-4.118-8.75-2.091-6.353-6.351-15.55-7.544-16.287-.481-.297-.874-1.019-.874-1.603 0-.713.413-.737 1.25-.074.688.545 3.626 1.766 6.531 2.713 6.317 2.061 10.387 5.289 13.377 10.609 1.215 2.163 2.708 3.933 3.315 3.933 1.094 0 7.527 10.334 7.527 12.09 0 .5.675.91 1.5.91 2.014 0 1.999-.059-1.947-7.895-6.634-13.173-14.4-21.14-24.914-25.558-18.886-7.935-28.178-31.975-17.304-44.772 10.912-12.84 37.78-11.677 42.032 1.82.786 2.496 3.271 17.38 4.099 24.552.455 3.936 1.619 7.089 3.843 10.402 1.755 2.614 3.866 5.809 4.691 7.1.825 1.291 1.837 2.348 2.25 2.349 1.637.004.56-2.771-3.252-8.383-2.199-3.237-4.013-7.062-4.031-8.5-.018-1.438-.885-6.875-1.926-12.081-1.041-5.206-1.697-9.781-1.459-10.166.238-.385-.057-1.975-.655-3.534-3.819-9.949-.275-14.916 10.379-14.545 22.192.772 25.514 6.256 17.393 28.711-2.541 7.026-3.67 28.5-1.498 28.5 1.044 0 .888 1.133 1.728-12.5.829-13.443 5.202-29.042 6.421-22.903 4.611 23.217 5.814 31.488 5.469 37.599-.249 4.413-.02 6.705.648 6.484 1.716-.567 1.764-16.871.071-24.173-2.204-9.501-1.981-10.338 1.564-5.895 3.853 4.829 8.408 13.748 9.392 18.388.954 4.505 1.577 5.503 2.502 4.006 1.866-3.02-3.116-15.217-9.99-24.454-11.404-15.328-10.237-31.569 2.267-31.535 11.867.033 52.316 5.158 55.915 7.084 6.655 3.561 8.839 19.238 4.429 31.795-3.092 8.804-4.89 27.997-2.329 24.86.783-.959 1.707-4.784 2.053-8.5.347-3.716 1.837-10.806 3.313-15.756 2.186-7.334 2.651-10.758 2.513-18.5-.222-12.369.044-12.749 7.323-10.459 5.713 1.797 5.713 1.797 4.908 9.378-.442 4.169-.728 9.156-.635 11.081.114 2.347-1.045 5.807-3.518 10.5-4.01 7.612-5.695 22.5-2.546 22.5.935 0 1.301-1.83 1.301-6.497 0-9.422 5.465-21.372 7.766-16.981 1.62 3.093 1.037 16.109-.883 19.697-.905 1.691-.806 1.75 1.026.605 1.116-.696 2.239-2.404 2.496-3.795 1.673-9.072 1.615-12.033-.352-17.873-2.33-6.914-1.764-15.896 1.295-20.564 1.844-2.814 3.45-2.379 9.152 2.482 1.1.938 4.475 2.93 7.5 4.428 3.025 1.497 6.918 3.785 8.652 5.086 4.841 3.631 11.779 7.083 15.726 7.823 1.96.368 5.125 2.113 7.034 3.879 1.908 1.765 4.041 3.354 4.741 3.531.7.176 3.314 1.793 5.81 3.592 2.495 1.799 5.325 3.553 6.287 3.897.963.345 1.756 1.204 1.762 1.909.007.704 1.582 2.298 3.5 3.54 1.919 1.243 3.49 2.818 3.492 3.5.003.683 1.401 3.266 3.109 5.741 2.847 4.128 3.088 3.987 1.201-.705-1.08-2.687 8.036 5.392 12.105 10.728 9.289 12.18 17.379 13.184 8.931 1.109-21.065-30.112-23.678-59.132-5.325-59.132 3.122 0 7.169-.52 8.993-1.156 4.902-1.709 7.982 2.067 7.982 9.785 0 7.144 2.576 7.19 5.211.094 6.586-17.739 19.898-9.559 24.836 15.26 1.147 5.766 2.281 10.678 2.519 10.917 1.389 1.388 1.6-1.742.516-7.645-3.148-17.138-1.332-22.303 6.918-19.681 16.624 5.281 30.097 19.192 32.208 33.255 2.04 13.59 4.792 13.947 4.792.62 0-9.34 1.446-17.449 3.111-17.449 9.23 0 17.774 20.945 11.412 27.975-1.586 1.752-2.043 4.025-.811 4.025.392 0 1.63-1.09 2.75-2.423 2.399-2.852 6.538-2.023 6.538 1.309 0 2.641 1.019 5.114 2.107 5.114 1.024 0 1.152-3.432.252-6.79-.337-1.26-1.906-2.959-3.486-3.776-5.721-2.958-3.426-16.92 2.335-14.206 2.741 1.29 2.814 1.808 1.137 8.005-.275 1.016.646 2.849 2.224 4.426 1.913 1.914 2.872 4.137 3.312 7.685.926 7.468 3.536 7.702 2.919.262-.362-4.374-1.073-6.281-3.146-8.445-3.116-3.253-2.939-9.869.232-8.65.888.342 4.989 1.551 9.114 2.687 12.739 3.51 15.039 5.471 17.54 14.955.734 2.78 1.587 5.307 1.897 5.617 1.275 1.275 1.647-.806.735-4.109-1.63-5.902 2.318-5.483 5.453.58 1.764 3.412 3.233 2.77 2.863.95-.37-1.82-2.206-4.843-4.08-6.717-4.021-4.02-4.589-7.02-1.158-6.111 1.237.328 5.737 1.133 10 1.789 4.494.693 7.75 1.678 7.75 2.347 0 .634 1.125 2.209 2.5 3.501 2.989 2.808 3.143 5.988.563 11.669-2.25 4.956-2.227 4.995 2.655 4.529 3.673-.35 4.968-13.043 1.847-18.093-.953-1.541.86-1.353 14.251 1.477 3.006.635 5.184 5.838 5.184 12.386 0 4.415.253 5.032 2.061 5.032 1.876 0 2.001-.404 1.388-4.493-1.058-7.055.132-11.646 2.848-10.985 2.961.722 26.126 4.796 48.203 8.478 32.271 5.383 45.802 8.576 57.855 13.65 10.15 4.274 11.018 4.565 14.329 4.804 1.752.126 4.387 1.018 5.857 1.981 1.746 1.144 3.013 1.411 3.653.771 1.201-1.201.727-1.484-6.194-3.703-3.025-.97-9.775-3.953-15-6.63-5.225-2.676-16.25-7.692-24.5-11.145-15-6.279-15-6.279-15-13.083 0-10.16-2.926-11.549-9.524-4.521-4.009 4.27-27.949-.525-31.31-6.271-1.611-2.755-2.402-7.418-1.61-9.5 1.543-4.059 1.169-6.353-1.037-6.353-1.308 0-2.157.849-2.5 2.5l-1.034 4.985c-1.016 4.899-3.741 4.15-30.959-8.511-14.286-6.645-26.211-12.419-26.5-12.832-.289-.412-3.451-2.248-7.026-4.078-3.575-1.831-7.625-4.112-9-5.07-4.903-3.414-28.875-14.868-29.185-13.945-1.754 5.235-45.103-26.998-50.088-37.244-2.168-4.454-5.451-10.2-7.296-12.769-7.259-10.103-14.431-29.577-14.431-39.181 0-3.343-1.09-6.136-6.966-17.855-.414-.825-1.357-1.5-2.096-1.5-.886 0-2.408-4.255-4.472-12.5-1.721-6.875-4.217-15.875-5.547-20-2.108-6.535-2.419-9.387-2.419-22.167 0-8.067-.391-14.592-.87-14.5-.478.092-1.833-2.533-3.011-5.833-1.177-3.3-2.433-6.454-2.79-7.008-3.793-5.897-4.824-31.037-1.914-46.691 1.053-5.666 2.201-12.002 2.551-14.081.636-3.781.636-3.781 7.897 5 11.077 13.395 11.429 14.049 13.086 24.289.825 5.1 1.702 9.476 1.95 9.724 1.448 1.448 6.563-10.038 11.554-25.945 6.186-19.717 20.744-54.95 27.39-66.288 2.257-3.85 5.06-9.025 6.229-11.5 2.829-5.991 10.311-17.468 11.489-17.625.517-.069 1.464-.181 2.106-.25.641-.069.888-.403.548-.743-1.14-1.141 7.48-16.799 13.697-24.882 7.562-9.831 16.438-23.269 19.922-30.16 6.79-13.431 26.447-41.121 34.368-48.413 2.639-2.43 7.249-7.303 10.245-10.831 2.996-3.527 5.624-5.882 5.84-5.234.674 2.021 11.963-8.681 15.288-14.494 6.29-10.993 34.829-33.944 51.343-41.291 4.445-1.977 10.8-5.254 14.122-7.281 3.323-2.027 7.238-4.141 8.702-4.698 1.463-.556 4.483-2.162 6.709-3.567 4.581-2.892 5.34-2.087 1.457 1.545-7.613 7.12-2.735 6.424 13.491-1.926 7.833-4.031 20.101-14.741 20.101-17.549 0-.511 5.519-6.593 12.265-13.515 6.745-6.922 16.032-16.636 20.637-21.586 4.605-4.95 10.635-11.364 13.4-14.252 11.566-12.085 1.431-6.015-12.302 7.367-7.616 7.422-13.414 12.668-24.091 21.801-4.071 3.482-28.653 15.422-41.358 20.088-4.978 1.829-17.151 7.367-27.051 12.308-24.886 12.42-32.481 14.637-29.037 8.476 1.395-2.497 2.537-5.411 2.537-6.475 0-3.599 8.139-19.263 14.452-27.813 6.098-8.26 8.452-13.323 6.697-14.408-1.243-.768-3.605 2.148-15.241 18.814-17.076 24.457-27.412 34.652-43.786 43.188-4.236 2.208-8.708 5.458-10.5 7.631-3.255 3.947-15.748 13.93-41.029 32.789-8.199 6.116-20.799 15.968-28 21.892-7.201 5.925-16.468 13.171-20.593 16.101-29.951 21.278-69 55.592-69 60.633 0 2.535 2.064 6.826 4.022 8.36 3.344 2.621 18.526 26.455 20.574 32.3 1.878 5.358-4.037-.432-12.054-11.8-2.716-3.85-5.756-7.593-6.756-8.318-2.258-1.637-22.786-32.705-22.786-34.486 0-.713-.386-1.723-.857-2.246-2.373-2.63-7.92-18.703-11.371-32.95-6.689-27.611-7.982-39.311-7.763-70.252.227-32.071-.655-35.335-3.558-13.172-1.949 14.876-4.681 24.414-10.07 35.154-2.41 4.802-4.381 9.31-4.381 10.018 0 2.005-4.919 8.752-6.38 8.752-.72 0-3.724-3.41-6.675-7.577-2.951-4.168-6.105-7.974-7.009-8.457-.903-.484-3.296-3.936-5.318-7.673-2.021-3.736-5.953-10.382-8.737-14.768-5.909-9.306-5.876-9.86 1.412-23.935 6.219-12.009 27.638-32.156 44.914-42.246 12.651-7.389 27.077-22.2 32.662-33.533 10.965-22.25 25.084-38.416 56.843-65.085 18.195-15.279 44.704-34.617 48.538-35.408 3.02-.624 3.609-2.051 1.225-2.966-3.469-1.331-34.281 21.683-64.003 47.805-17.929 15.758-18.066 15.76-8.685.118 4.801-8.007 9.551-21.511 11.24-31.954a546.684 546.684 0 0 1 2.564-14.321c.803-4.125 2.323-13.134 3.378-20.021 1.055-6.886 2.217-13.299 2.581-14.25.873-2.273-1.204-2.255-2.397.021-.505.963-1.447 5.125-2.093 9.25-1.235 7.886-5.327 30.655-7.189 40-2.145 10.767-6.83 23.187-11.814 31.313-2.781 4.535-5.057 8.642-5.057 9.126s-1.722 3.17-3.826 5.97-5.473 7.679-7.487 10.841c-2.014 3.163-4.042 5.75-4.506 5.75-.463 0-1.31 1.012-1.881 2.25-13.57 29.424-23.331 41.963-40.3 51.771-11.438 6.61-35.268 26.594-47.608 39.922-8.312 8.978-9.007 9.182-11.568 3.391-9.658-21.832-6.054-56.047 8.407-79.834 15.187-24.979 21.468-31.977 50.261-56 17.689-14.758 23.831-21.5 19.585-21.5-2.299 0-30.89 22.706-51.479 40.883-3.354 2.961-8.515 7.178-11.469 9.371-7.127 5.291-15.541 13.794-23.295 23.538-3.484 4.378-12.138 14.588-19.232 22.687-7.095 8.1-18.647 21.909-25.673 30.686-7.026 8.777-13.088 16.043-13.471 16.147-1.016.274-8.196-21.34-10.536-31.719-2.243-9.951-2.846-37.737-1.024-47.158 7.612-39.349 16.949-58.513 41.32-84.811 11.722-12.648 14.447-17.119 17.709-29.056 4.085-14.954 17.582-36.406 33.001-52.453 6.371-6.63 7.324-8.855 2.245-5.238-12.466 8.877-33.43 40.513-38.065 57.446-3.111 11.364-4.759 14.004-17.316 27.756-20.112 22.025-27.018 33.607-34.832 58.421-3.614 11.477-3.696 9.838-.231-4.616 4.368-18.222 3.777-41.884-1.735-69.384-.441-2.2-1.745-6.576-2.898-9.725-5.829-15.921-.509-41.276 14.266-67.99 4.895-8.85 5.552-10.785 3.662-10.785-.353 0-2.778 3.59-5.388 7.978m78.674 406.769c.351 1.785 6.525 15.285 13.719 30 16.824 34.41 16.002 32.462 29.024 68.753 10.056 28.022 24.215 61.5 26.012 61.5.388 0 1.503-1.237 2.477-2.75.975-1.513 2.377-3.11 3.115-3.55.739-.44 1.343-1.588 1.343-2.553 0-.964 1.362-7.686 3.026-14.938 3.027-13.185 3.027-13.185-6.369-25.012-17.78-22.379-29.406-38.719-34.65-48.697-2.89-5.5-8.121-15.224-11.623-21.609-3.503-6.385-7.461-14.077-8.795-17.094-5.021-11.354-18.46-30.06-17.279-24.05"/>
</svg>

